<svg width="1440" height="1091" viewBox="0 0 1440 1091" fill="none" xmlns="http://www.w3.org/2000/svg">
<g clip-path="url(#clip0)">
<path d="M-58.3411 92.8309C-58.3411 92.8309 102.307 8.28986 280.659 8.28979C470.659 8.28973 739.964 132.708 996.159 137.405C1190.46 140.966 1480.66 92.8309 1480.66 92.8309V952.527C1480.66 952.527 1288.06 882.954 1164.66 882.954C884.067 882.954 738.251 1057.29 457.659 1057.29C260.639 1057.29 -58.3411 882.954 -58.3411 882.954V92.8309Z" fill="url(#paint0_linear)"/>
<path d="M598.425 624.574C639.871 586.194 685.756 567.597 736.261 569.347C786.895 571.101 842.663 593.325 903.688 637.577C923.594 652.012 952.913 667.833 984.031 684.519C984.977 685.026 985.924 685.533 986.872 686.042C1017.28 702.346 1049.33 719.525 1076.58 737.296C1104.82 755.711 1127.26 774.358 1137.6 792.796C1142.71 801.901 1144.73 810.723 1143.28 819.365C1141.82 828.023 1136.78 837.055 1126.7 846.386C1085.26 884.758 1011.92 919.954 934.816 936.407C857.633 952.878 777.816 950.334 722.945 914.622C682.768 888.473 630.894 834.39 599.593 777.235C583.951 748.672 573.615 719.643 572.25 693.175C570.892 666.845 578.393 643.124 598.425 624.574Z" stroke="white" stroke-opacity="0.18" stroke-width="8"/>
<path d="M-82.5767 195.106C-52.4938 167.248 -19.2275 153.779 17.3726 155.047C54.0861 156.319 94.5833 172.437 138.964 204.619C153.499 215.159 174.889 226.699 197.536 238.843C198.221 239.211 198.908 239.579 199.596 239.948C221.748 251.824 245.061 264.322 264.884 277.249C285.442 290.654 301.672 304.167 309.126 317.458C312.797 324.003 314.223 330.291 313.192 336.42C312.158 342.562 308.573 349.028 301.302 355.762C271.226 383.612 217.926 409.204 161.853 421.17C105.71 433.15 47.7795 431.267 8.01687 405.388C-21.1533 386.403 -58.8614 347.095 -81.6097 305.557C-92.9769 284.8 -100.461 263.751 -101.449 244.598C-102.431 225.566 -97.0136 208.475 -82.5767 195.106Z" stroke="white" stroke-opacity="0.18" stroke-width="7"/>
<path d="M1521.63 539.874C1621.05 571.244 1666.23 653.49 1651.2 790.447C1641.59 878.05 1681.47 1094.78 1582.05 1063.41C1482.64 1032.04 1336.9 893.411 1344.06 771.843C1349.26 683.658 1422.22 508.504 1521.63 539.874Z" fill="white" fill-opacity="0.18"/>
<path d="M111.234 951.497C134.237 1078.43 70.2538 1175.34 -88.3577 1237.9C-189.812 1277.91 -404.085 1446.58 -427.087 1319.65C-450.09 1192.71 -382.387 953.191 -245.161 890.903C-145.617 845.72 88.2315 824.56 111.234 951.497Z" fill="white" fill-opacity="0.18"/>
</g>
<defs>
<linearGradient id="paint0_linear" x1="711.159" y1="8.28979" x2="711.159" y2="1057.29" gradientUnits="userSpaceOnUse">
<stop stop-color="#77BEFF"/>
<stop offset="1" stop-color="#8BF8FF"/>
</linearGradient>
<clipPath id="clip0">
<rect width="1440" height="1091" fill="white"/>
</clipPath>
</defs>
</svg>
