<svg width="1440" height="974" viewBox="0 0 1440 974" fill="none" xmlns="http://www.w3.org/2000/svg">
<g clip-path="url(#clip0)">
<path d="M-1 69.8497C-1 69.8497 144.5 222.912 443.5 128.128C971.5 -39.2503 1439 5.40622 1439 5.40622V974C1439 974 1129.33 895.778 925 879.465C562.411 850.517 -1 974 -1 974V69.8497Z" fill="url(#paint0_linear)"/>
<path d="M162.596 680.017C194.354 855.27 106.017 989.065 -112.966 1075.43C-253.037 1130.67 -548.867 1363.55 -580.625 1188.29C-612.384 1013.04 -518.911 682.355 -329.453 596.36C-192.021 533.979 130.837 504.764 162.596 680.017Z" fill="white" fill-opacity="0.18"/>
<path d="M1868.6 -249.852C1900.35 -74.5984 1812.02 59.196 1593.03 145.559C1452.96 200.8 1157.13 433.679 1125.37 258.425C1093.62 83.1718 1187.09 -247.514 1376.55 -333.509C1513.98 -395.89 1836.84 -425.105 1868.6 -249.852Z" fill="white" fill-opacity="0.18"/>
<path d="M958.068 259.82C1011.97 209.906 1071.56 185.783 1137.12 188.054C1202.88 190.333 1275.45 219.206 1355.01 276.894C1381.08 295.802 1419.45 316.502 1460.05 338.274C1461.28 338.932 1462.51 339.591 1463.74 340.252C1503.46 361.547 1545.25 383.953 1580.79 407.125C1617.65 431.159 1646.71 455.362 1660.04 479.141C1666.61 490.845 1669.15 502.068 1667.31 512.993C1665.46 523.944 1659.07 535.497 1646.06 547.546C1592.17 597.448 1496.64 643.319 1396.13 664.767C1295.49 686.244 1191.69 682.855 1120.47 636.503C1068.2 602.484 1000.62 532.033 959.846 457.585C939.474 420.385 926.07 382.677 924.301 348.383C922.544 314.313 932.24 283.738 958.068 259.82Z" stroke="white" stroke-opacity="0.26" stroke-width="13"/>
<path d="M625 973.558C731.971 872.227 905.606 784.968 1035.69 822.772C1133.78 851.279 1296.75 959.213 1317.33 1067.66" stroke="white" stroke-opacity="0.26" stroke-width="13"/>
</g>
<defs>
<linearGradient id="paint0_linear" x1="719" y1="0" x2="719" y2="974" gradientUnits="userSpaceOnUse">
<stop stop-color="#79DFB7"/>
<stop offset="1" stop-color="#CFF5C1"/>
</linearGradient>
<clipPath id="clip0">
<rect width="1440" height="974" fill="white"/>
</clipPath>
<stop offset="1" stop-color="#CFF5C1"/>
</linearGradient>
<clipPath id="clip0">
<rect width="1440" height="974" fill="white"/>
</clipPath>
</defs>
</svg>
