<svg width="1440" height="910" viewBox="0 0 1440 910" fill="none" xmlns="http://www.w3.org/2000/svg">
<g clip-path="url(#clip0)">
<path d="M1516.81 84.7857C1787.23 148.555 1989.25 375.597 1985.61 465.153C1979.75 554.397 1778.64 622.089 1745.9 710.221C1713.16 798.353 1851.1 906.58 1719.32 914.167C1587.46 922.413 1183.86 828.388 925.499 822.786C667.235 816.525 554.308 898.027 390.858 906.513C227.502 914.341 13.6245 849.153 -73.2711 778.389C-160.167 707.626 -117.871 631.599 -109.952 575.584C-101.94 518.909 -123.794 482.211 -317.549 386.259C-509.094 290.619 -870.238 135.378 -848.065 90.1161C-823.776 45.8251 -426.047 -5.60488 -126.924 14.4985C172.105 35.2609 374.83 127.21 643.608 122.858C912.292 119.166 1246.49 20.3569 1516.81 84.7857Z" fill="url(#paint0_linear)"/>
<path d="M498.298 857.527L498.306 857.537L498.314 857.548C513.372 876.869 531.043 886.284 546.314 892.848C549.796 894.344 552.965 895.621 555.935 896.817C559.74 898.349 563.217 899.75 566.6 901.31C572.4 903.986 576.518 906.557 579.2 909.664L579.22 909.688L579.241 909.711C581.824 912.637 583.488 916.595 584.653 922.123C585.718 927.178 586.273 933.025 586.935 940.01C587.007 940.768 587.081 941.54 587.156 942.326C588.674 958.166 590.925 978.171 600.968 1001.12L600.971 1001.13L600.975 1001.13C608.368 1017.89 620.082 1036.35 630.752 1053.16C634.333 1058.8 637.796 1064.26 640.938 1069.4C647.332 1079.87 652.344 1088.93 654.848 1096.04C656.101 1099.6 656.57 1102.25 656.494 1104.1C656.425 1105.79 655.941 1106.49 655.43 1106.91L655.377 1106.96L655.325 1107C654.597 1107.65 652.932 1108.46 649.587 1108.93C646.35 1109.39 642.18 1109.44 637.12 1109.14C627.983 1108.6 616.793 1107 604.357 1105.23C602.988 1105.03 601.605 1104.83 600.208 1104.63C572.572 1100.7 539.431 1096.34 514.412 1102.88C488.613 1109.59 471.862 1127.32 457.368 1146.98C453.023 1152.87 448.721 1159.16 444.441 1165.43C441.677 1169.47 438.922 1173.51 436.169 1177.41C429.018 1187.55 421.562 1197.3 412.946 1205.92C395.657 1223.05 373.423 1235.82 354.037 1240.53C344.342 1242.88 335.749 1243.13 328.972 1241.27C322.378 1239.46 317.408 1235.66 314.421 1229.39C311.247 1222.72 310.071 1212.88 310.122 1200.27C310.163 1190.22 310.962 1179.03 311.813 1167.1C312.02 1164.21 312.229 1161.27 312.432 1158.29C314.47 1128.38 315.857 1094.62 304.25 1068.68L304.24 1068.65L304.23 1068.63C292.332 1042.67 267.87 1025.39 244.545 1011.04C240.075 1008.29 235.683 1005.68 231.4 1003.12C224.247 998.855 217.397 994.77 210.987 990.559C200.805 983.871 192.528 977.352 187.075 970.324C176.742 956.954 176.259 940.221 182.89 922.835C189.549 905.38 203.202 887.946 219.787 874.525C235.902 861.519 254.814 852.373 275.041 842.59C275.395 842.419 275.75 842.247 276.106 842.075C296.554 832.184 318.17 821.624 338.064 805.848C348.099 797.962 357.597 788.842 366.501 779.907C369.426 776.972 372.271 774.074 375.05 771.243C380.826 765.359 386.318 759.764 391.659 754.724C399.58 747.25 406.655 741.503 413.039 738.283C419.314 735.118 424.167 734.745 428.39 736.705L428.42 736.719L428.45 736.733C433.158 738.85 438.293 744.364 443.908 753.352C449.401 762.147 454.808 773.347 460.447 785.64C461.921 788.853 463.411 792.143 464.921 795.478C474.785 817.263 485.518 840.965 498.298 857.527Z" stroke="white" stroke-opacity="0.32" stroke-width="11"/>
<path d="M1410.12 99.6224C1452.64 113.059 1467.8 181.502 1488.85 255.823C1510.32 329.724 1537.69 409.504 1501.06 433.858C1464.43 458.211 1364.23 426.719 1298.13 422.101C1231.61 417.482 1199.19 438.896 1169.72 435.537C1140.25 432.178 1113.72 404.045 1093.09 370.874C1072.89 338.122 1058.99 300.331 1064.04 265.48C1069.52 230.629 1094.36 198.297 1124.67 182.761C1155.41 167.225 1191.19 168.485 1244.24 147.91C1297.71 127.755 1367.6 86.1858 1410.12 99.6224Z" fill="white" fill-opacity="0.2"/>
<path d="M1603.54 632.598L1603.55 632.606L1603.56 632.613C1618.17 643.863 1626.58 659.452 1632.6 676.73C1635.61 685.373 1637.99 694.33 1640.27 703.302C1640.64 704.739 1641 706.177 1641.36 707.616C1643.25 715.087 1645.13 722.547 1647.28 729.587C1652.27 746.367 1658.81 760.661 1665.34 774.062C1666.55 776.555 1667.76 779.009 1668.96 781.44C1674.24 792.165 1679.29 802.415 1683.47 813.376L1683.47 813.383L1683.48 813.389C1693.81 840.245 1698.44 869.34 1683.23 892.789C1667.74 916.645 1631.7 935.763 1591.02 933.523C1574 932.578 1556.37 927.823 1537.47 922.725C1533.86 921.751 1530.2 920.765 1526.49 919.79C1503.66 913.789 1479.25 908.357 1453.64 910.284L1453.63 910.285L1453.62 910.286C1428.3 912.325 1402.23 921.653 1378.5 930.24L1377.72 930.521C1353.86 939.154 1332.79 946.777 1315.81 946.998C1298.17 947.107 1279.35 942.952 1263.12 935.263C1246.85 927.555 1233.58 916.494 1226.48 903.084C1219.38 889.677 1218.15 873.162 1219.47 856.375C1220.5 843.333 1223.01 830.661 1225.2 819.58C1225.83 816.382 1226.44 813.316 1226.98 810.412L1226.98 810.404C1229.15 798.555 1234.89 786.885 1242.77 775.052C1250.66 763.212 1260.48 751.514 1270.61 739.503C1290.78 715.606 1311.4 691.797 1343.03 667.979L1343.04 667.971L1343.05 667.963C1374.39 644.101 1416.58 620.381 1466.42 611.727C1491.37 607.394 1518.26 606.773 1542.7 610.212C1567.21 613.662 1588.8 621.133 1603.54 632.598Z" stroke="white" stroke-opacity="0.2" stroke-width="10"/>
<path d="M121.929 334.999C149.819 388.231 142.498 451.205 119.837 495.391C97.5245 539.577 59.8724 564.975 13.5045 596.984C-32.8633 629.341 -88.2956 667.96 -140.59 658.566C-192.885 649.52 -242.042 592.461 -268.189 518.006C-294.685 443.898 -298.52 353.091 -255.29 296.032C-212.06 239.321 -122.461 217.054 -45.7627 227.491C30.9361 238.277 94.0382 281.419 121.929 334.999Z" fill="white" fill-opacity="0.2"/>
</g>
<defs>
<linearGradient id="paint0_linear" x1="599.39" y1="59.9856" x2="476.385" y2="930.11" gradientUnits="userSpaceOnUse">
<stop stop-color="#F6ABAB"/>
<stop offset="1" stop-color="#FDFFA4"/>
</linearGradient>
<clipPath id="clip0">
<rect width="1440" height="910" fill="white"/>
</clipPath>
</defs>
</svg>
